<svg width="714" height="569" viewBox="0 0 714 569" fill="none" xmlns="http://www.w3.org/2000/svg">
<g clip-path="url(#clip0_1_268)">
<path d="M477.072 124.634C476.967 124.652 476.811 124.679 476.621 124.71C472.905 125.325 450.442 128.791 427.794 120.164C418.2 116.509 421.473 115.598 400.104 102.892C375.053 87.9957 368.623 88.0998 366.758 81.1538C363.033 67.2838 382.924 45.4798 396.09 46.9154C399.556 47.2934 403.268 49.3598 409.042 47.9586C410.31 47.6508 415.863 46.3032 418.57 41.7068C420.985 37.6065 418.94 34.6486 419.911 31.2858C422.46 22.4587 443.711 18.0535 462.342 21.166C473.058 22.9562 481.393 27.8436 497.624 37.5452C525.877 54.4311 540.002 62.874 543.177 75.8096C546.186 88.0702 538.964 93.3531 544.217 106.478C549.108 118.698 556.876 117.882 559.549 127.768C563.851 143.676 547.885 161.136 541.234 168.409C533.942 176.383 526.968 180.759 517.71 186.569C506.089 193.862 500.279 197.508 493.293 197.137C480.628 196.465 442.992 198.754 442.501 188.273C442.318 184.346 396.672 187.562 419.148 145.274C421.905 140.087 475.911 145.628 476.624 142.648" fill="#292524"/>
<path d="M498.93 151.694L537.75 209.598L426.318 232.132L433.415 159.639L498.93 151.694Z" fill="#FECDD3"/>
<path opacity="0.1" d="M498.93 151.694L537.75 209.598L426.318 232.132L433.415 159.639L498.93 151.694Z" fill="#020617"/>
<path d="M417.971 194.575L538.158 189.567L591.574 218.779L589.07 406.566L644.99 512.562L362.886 459.146L384.586 379.024L374.571 210.433L417.971 194.575Z" fill="#1D4ED8"/>
<path d="M3.23675 559.385C-0.600286 553.337 -1.05343 545.864 2.02483 539.396L47.7683 443.286C51.1822 436.113 58.5213 431.478 66.4653 431.478H644.241C651.964 431.478 658.99 435.726 662.577 442.565L711.608 536.027C714.997 542.488 714.774 550.075 711.011 556.326C707.249 562.575 700.648 566.324 693.353 566.353L20.8032 569H20.719C13.5894 569 7.05823 565.41 3.23675 559.385Z" fill="#F8FAFC"/>
<path d="M3.23675 559.385C-0.600286 553.337 -1.05343 545.864 2.02483 539.396L47.7683 443.286C51.1822 436.113 58.5213 431.478 66.4653 431.478H644.241C651.964 431.478 658.99 435.726 662.577 442.565L711.608 536.027C714.997 542.488 714.774 550.075 711.011 556.326C707.249 562.575 700.648 566.324 693.353 566.353L20.8032 569H20.719C13.5894 569 7.05823 565.41 3.23675 559.385ZM66.4653 433.651C59.3551 433.651 52.7864 437.8 49.7308 444.22L3.98739 540.33C1.2321 546.119 1.63749 552.807 5.07197 558.222C8.49265 563.614 14.3375 566.827 20.7194 566.827H20.7947L693.344 564.179C699.873 564.154 705.782 560.798 709.149 555.204C712.517 549.61 712.716 542.819 709.683 537.037L660.652 443.574C657.442 437.454 651.153 433.651 644.241 433.651H66.4653Z" fill="#111827"/>
<path d="M590.448 532.258L352.016 515.866C348.496 515.624 345.689 513.25 344.864 509.82C344.039 506.389 345.462 502.999 348.487 501.184L401.211 469.55C402.55 468.746 404.086 468.356 405.643 468.431L611.884 477.805C614.611 477.928 617.047 479.417 618.399 481.788C619.752 484.159 619.795 487.013 618.514 489.423L597.98 528.075C596.602 530.669 593.9 532.277 590.991 532.277C590.811 532.277 590.63 532.27 590.448 532.258Z" fill="#111827"/>
<path d="M349.949 506.302L587.401 522.577L606.18 482.098L402.575 474.114L349.949 506.302Z" fill="#F8FAFC"/>
<path d="M466.797 171.199C506.205 171.199 538.151 139.254 538.151 99.8469C538.151 60.44 506.205 28.4944 466.797 28.4944C427.389 28.4944 395.443 60.44 395.443 99.8469C395.443 139.254 427.389 171.199 466.797 171.199Z" fill="#FECDD3"/>
<path d="M489.78 104.464C489.675 104.482 489.519 104.509 489.329 104.54C485.613 105.155 463.15 108.621 440.502 99.9937C430.907 96.339 434.18 95.4281 412.812 82.722C387.76 67.8255 381.331 67.9296 379.466 60.9836C375.741 47.1136 395.632 25.3097 408.797 26.7452C412.264 27.1232 415.976 29.1897 421.75 27.7885C423.018 27.4806 428.571 26.133 431.278 21.5366C433.693 17.4363 431.648 14.4784 432.619 11.1156C435.168 2.28855 456.419 -2.11662 475.05 0.995869C485.766 2.78607 494.1 7.67339 510.332 17.375C538.584 34.2609 552.71 42.7039 555.885 55.6394C558.894 67.9 551.672 73.1829 556.925 86.3075C561.816 98.528 569.584 97.7118 572.257 107.598C576.559 123.506 560.593 140.965 553.942 148.239C546.65 156.213 539.676 160.589 530.418 166.399C518.797 173.692 512.987 177.338 506.001 176.967C493.336 176.294 480.738 164.817 480.247 154.336C480.063 150.408 481.702 149.23 485.757 135.727C487.447 130.102 488.619 125.458 489.331 122.478" fill="#292524"/>
<path d="M538.686 486.753C543.276 486.935 546.77 491.048 547.023 495.504C547.286 500.129 544.07 504.39 540.206 506.592C535.68 509.171 530.031 509.585 524.935 509.141C520.351 508.742 515.363 507.316 512.413 503.531C509.931 500.346 509.018 495.534 511.129 491.919C513.222 488.334 517.673 487.345 521.396 488.783C525.337 490.305 527.814 493.889 527.839 498.123C527.867 502.818 525.156 507.155 521.351 509.75C517.248 512.55 512.084 513.45 507.2 513.439C501.878 513.426 496.579 512.31 491.684 510.236C487.097 508.292 482.514 505.49 479.235 501.683C476.16 498.113 474.319 493.161 476.026 488.531C477.426 484.734 480.962 482.406 485.012 482.728C488.721 483.022 492.471 485.174 494.117 488.6C495.974 492.465 495.14 497.103 492.777 500.559C490.048 504.55 485.735 506.792 480.945 507.116C475.848 507.461 470.8 505.649 466.607 502.849C462.724 500.257 459.311 496.938 455.143 494.781C453.137 493.743 450.953 493.083 448.682 493.086C445.79 493.089 443.009 494.039 440.196 494.59C437.812 495.057 435.355 495.329 433.003 494.567C430.989 493.915 429.105 492.721 427.837 491.007C426.638 489.386 426.217 487.356 426.896 485.431C427.429 483.922 429.849 484.572 429.311 486.097C428.068 489.616 432.331 492.202 435.314 492.525C437.578 492.769 439.914 492.115 442.097 491.605C444.373 491.072 446.701 490.528 449.054 490.586C457.391 490.791 462.903 497.917 469.625 501.784C476.692 505.849 487.041 506.132 491.369 498.054C492.941 495.12 493.266 491.22 491.106 488.479C489.307 486.196 486.112 484.829 483.215 485.272C479.578 485.828 477.766 489.292 477.898 492.736C478.06 496.952 480.998 500.376 484.131 502.901C491.106 508.52 500.355 511.383 509.276 510.881C513.462 510.645 517.91 509.555 521.162 506.768C523.971 504.361 525.889 500.445 525.214 496.694C524.629 493.448 521.907 490.986 518.617 490.659C515.253 490.325 512.623 492.714 512.473 496.075C512.304 499.856 514.55 503.012 517.805 504.733C521.493 506.684 525.961 506.925 530.047 506.713C534.385 506.487 538.906 505.344 541.942 502.04C544.532 499.222 545.513 495.042 543.127 491.781C542.074 490.342 540.49 489.328 538.686 489.257C537.08 489.194 537.072 486.69 538.686 486.753Z" fill="#1D4ED8"/>
<path d="M424.569 484.071L425.845 476.178L496.684 340.788C497.857 338.546 500.637 337.675 502.879 338.849C505.122 340.022 505.992 342.802 504.818 345.044L434.011 480.374L428.223 485.983C427.538 486.643 426.55 486.785 425.707 486.344C424.864 485.903 424.418 485.01 424.569 484.071Z" fill="#111827"/>
<path d="M472.855 397.933C480.847 399.438 488.362 402.835 494.772 407.839L495.133 407.917L495.206 407.558L572.411 419.65L566.817 316.963L625.329 284.916L611.499 458.492C608.504 469.578 596.999 476.052 585.969 472.859L487.691 444.591L487.936 443.382L487.593 443.289C479.738 445.408 471.491 445.614 463.541 443.891C443.596 439.854 429.511 426.292 432.082 413.599C434.653 400.907 452.903 393.893 472.855 397.933Z" fill="#FECDD3"/>
<path d="M525.638 237.14L591.574 218.779C591.574 218.779 626.211 244.234 630.384 271.776C630.881 275.052 632.257 427.636 630.802 431.604C620.017 460.998 560.693 414.077 560.693 414.077L525.638 237.14Z" fill="#1D4ED8"/>
<path d="M239.641 511.384L232.805 505.525C231.787 504.652 230.55 504.074 229.227 503.853L76.921 478.47C73.4448 477.89 70.8769 475.38 70.2191 471.917C69.5618 468.455 71.0305 465.178 74.0528 463.364L128.388 430.764C130.204 429.674 132.342 429.331 134.409 429.798L327.52 473.426C331.274 474.274 333.78 477.307 333.903 481.154C334.026 485.001 331.719 488.189 328.026 489.275L247.284 513.023C246.517 513.248 245.736 513.359 244.961 513.359C243.034 513.359 241.148 512.676 239.641 511.384Z" fill="#111827"/>
<path d="M166.294 322.061C173.843 325.085 180.559 329.872 185.879 336.023L186.218 336.169L186.359 335.83L259.762 362.64L338.136 235.744L381.463 262.596L290.591 408.315C285.506 418.611 272.966 422.735 262.762 417.468L171.816 370.709L172.291 369.57L171.972 369.412C163.856 369.97 155.725 368.576 148.258 365.346C129.472 357.525 118.28 341.492 123.259 329.538C128.239 317.583 147.502 314.235 166.294 322.061Z" fill="#FECDD3"/>
<path d="M422.211 258.653L387.545 206.815C387.545 206.815 346.294 214.98 329.301 237.054C327.177 239.813 254.215 345.628 253.745 350.246C250.455 382.571 334.311 397.717 334.311 397.717L422.211 258.653Z" fill="#1D4ED8"/>
<path d="M235.868 512.941L61.2791 488.811C55.4358 488.004 50.6131 483.817 48.9919 478.145L8.89348 337.803C7.53476 333.047 8.54911 328.121 11.6765 324.289C14.8039 320.457 19.4246 318.476 24.3586 318.853L200.257 332.329C206.621 332.816 211.963 337.297 213.551 343.479L252.339 494.475C253.577 499.293 252.339 504.386 249.028 508.099C246.176 511.296 242.133 513.082 237.918 513.082C237.238 513.082 236.553 513.036 235.868 512.941Z" fill="#111827"/>
<path d="M196.952 225.483C197.972 226.605 201.676 225.462 209.041 223.129C214.639 221.355 215.502 220.71 216.034 220.248C217.906 218.621 218.397 216.91 220.252 209.354C223.58 195.791 223.683 194.444 225.392 191.566C225.98 190.575 227.467 188.211 227.105 187.918C226.732 187.617 225.123 190.08 222.15 191.01C219.251 191.917 217.947 190.465 215.473 190.835C212.274 191.313 210.373 194.351 207.39 199.268C204.748 203.623 204.416 205.375 200.713 214.027C199.663 216.478 198.819 218.375 198.17 219.875C190.899 226.661 183.687 233.537 176.541 240.472C176.679 240.262 176.808 240.063 176.921 239.89C180.086 235.03 180.516 232.425 180.471 230.473C180.396 227.31 178.885 224.901 175.867 220.211C172.91 215.616 170.107 212.584 166.731 208.966C162.305 204.223 160.092 201.852 159.211 202.008C152.916 203.122 151.233 245.981 159.152 253.646C158.041 254.44 157.12 255.272 156.455 256.09C149.675 248.563 138.061 240.154 125.196 239.119C117.265 238.48 112.887 240.969 111.526 241.824C105.235 245.775 101.494 253.684 103.373 255.915C105.125 257.996 110.184 253.266 120.1 253.526C127.019 253.708 132.424 256.218 135.633 257.708C142.364 260.835 144.826 263.908 149.788 266.013C147.462 267.93 145.619 270.323 144.461 272.555C144.06 272.968 143.661 273.383 143.26 273.797C138.14 270.911 132.373 268.794 126.329 268.308C118.397 267.67 114.02 270.158 112.659 271.013C108.419 273.677 105.346 278.132 104.363 281.441C103.72 281.57 103.125 281.718 102.581 281.877C100.659 277.533 94.9386 272.952 89.6201 270.644C80.4651 266.67 68.5728 267.723 67.3003 271.502C67.2597 271.622 67.2495 271.741 67.2316 271.86C68.2352 263.763 69.5978 255.723 71.3002 247.741C71.3579 247.969 71.4304 248.199 71.527 248.442C73.787 254.118 79.8939 259.566 88.2182 262.392C94.7515 264.611 97.4881 263.461 98.1832 263.14C98.8473 262.833 101.715 261.602 102.418 259.154C103.721 254.615 95.7423 241.203 90.7094 245.702C74.5391 260.156 72.3201 248.452 71.5774 246.481C72.9522 240.171 74.5346 233.897 76.3094 227.658C76.34 227.696 76.3665 227.734 76.3983 227.772C79.9312 232.057 86.7301 235.075 94.7198 235.209C100.99 235.313 103.039 233.558 103.552 233.087C104.041 232.637 106.181 230.774 106.11 228.461C105.976 224.171 98.3446 220.677 92.2385 220.071C86.6117 219.513 80.5527 221.236 77.5471 223.417C78.9446 218.745 80.4477 214.094 82.0512 209.462C86.1577 211.14 91.9746 210.914 97.6891 208.36C102.402 206.253 103.318 204.231 103.536 203.701C103.744 203.195 104.691 201.06 103.831 199.36C102.238 196.208 95.3296 196.261 90.5654 197.937C88.6031 198.627 86.7382 199.688 85.1399 200.888C87.9814 193.297 91.0789 185.76 94.41 178.279L91.0715 177.444C86.8161 187.001 83.1059 196.683 79.9173 206.472C79.5208 203.601 78.5272 200.542 77.219 198.058C73.3723 190.752 65.1561 185.271 62.3775 187.049C61.8216 187.405 61.5877 187.984 61.3762 188.674C59.6729 194.224 60.9556 201.894 65.4413 208.942C68.9618 214.473 71.6733 215.249 72.3796 215.425C72.976 215.573 75.2784 216.209 77.1708 215.39C75.898 219.751 74.7213 224.131 73.6482 228.53C72.357 225.324 69.8123 221.908 67.1212 219.546C60.9155 214.1 51.282 211.92 49.3234 214.575C48.9317 215.106 48.9205 215.73 48.9696 216.45C49.3645 222.243 53.3062 228.946 60.0158 233.923C65.2822 237.829 68.0919 237.584 68.8143 237.495C69.2395 237.443 70.5245 237.315 71.7634 236.755C70.6133 242.101 69.6082 247.472 68.7393 252.866C67.0016 246.832 61.0987 239.304 55.5277 241.699C45.6419 245.949 34.0213 239.421 32.7422 242.275C32.4095 243.018 32.685 243.784 33.0035 244.615C35.5646 251.302 42.6382 257.782 52.3507 261.222C59.9736 263.923 63.1987 262.618 64.0182 262.252C64.5615 262.009 66.354 261.26 67.6893 259.871C66.7293 266.802 65.9935 273.768 65.4754 280.764C63.4143 276.264 57.6087 271.523 52.1739 269.079C42.6404 264.791 30.1715 265.73 28.7867 269.67C28.5098 270.458 28.7282 271.219 29.0549 272.072C31.6839 278.936 38.9439 285.586 48.913 289.118C56.7372 291.889 60.0472 290.55 60.8886 290.174C61.5031 289.9 63.6739 288.993 65.058 287.271C64.8808 290.505 64.7438 293.745 64.6572 296.991C64.6326 297.916 64.6181 298.84 64.6002 299.765C64.4879 299.947 64.3899 300.132 64.3247 300.326C64.0575 301.12 64.2393 301.883 64.5529 302.716C64.546 303.303 64.5423 303.89 64.5384 304.477C62.7942 302.896 60.7135 300.519 58.2109 297.131C55.9527 294.075 53.8083 296.318 52.4308 298.92C50.2713 298.439 48.2114 298.737 46.5915 300.25C35.7281 310.398 23.5436 305.014 23.3712 308.04C23.3215 308.913 23.7892 309.607 24.3786 310.36C29.1219 316.42 38.4337 320.84 49.4962 321.306C58.1785 321.671 61.0783 319.312 61.8045 318.678C62.0596 318.455 62.6314 317.973 63.2506 317.296C63.7478 317.694 64.2318 318.054 64.7172 318.382C64.9081 324.191 65.2498 329.994 65.7564 335.785C65.3445 335.822 64.9507 335.89 64.6572 335.92C60.4517 336.348 59.0347 330.674 52.6817 328.601C50.5719 327.913 46.5073 327.162 44.3653 328.601C44.0568 328.809 43.0044 329.588 41.3714 330.265C40.4061 330.665 39.6687 330.85 39.3755 330.93C36.7689 331.643 34.3547 333.599 32.7225 334.922C29.6542 337.408 28.1202 338.651 27.3999 340.909C27.1733 341.62 26.5357 343.619 27.3999 345.566C27.8083 346.487 28.756 347.855 32.3898 349.226C34.5495 350.04 40.8487 352.416 48.3571 349.891C50.0669 349.316 48.7618 349.522 55.3429 346.232C60.5206 343.643 63.5488 342.406 63.9919 339.911C64.1478 339.035 63.9907 337.965 64.6572 337.583C65.0277 337.371 65.4756 337.474 65.9226 337.635C66.3583 342.291 66.9023 346.94 67.5617 351.579H61.637C53.77 351.579 46.7123 355.957 43.2189 363.006L21.0576 407.714C19.6585 410.536 18.9188 413.693 18.9188 416.843V531.805C18.9188 543.139 28.1406 552.361 39.4757 552.361H91.2036C102.539 552.361 111.76 543.139 111.76 531.805V425.947C111.76 423.366 111.282 420.84 110.339 418.437L89.2185 364.625C86.6567 358.099 81.1086 353.482 74.4764 352.053C76.6037 349.531 78.7343 347.012 80.8816 344.5C83.5851 345.804 86.5593 346.875 89.757 347.627C98.2166 349.616 101.508 347.842 102.34 347.355C103.135 346.89 106.582 344.999 107.166 341.845C107.229 341.507 107.253 341.165 107.248 340.821C115.914 347.865 120.434 351.337 123.737 350.179C126.576 349.184 128.197 345.922 129.125 342.995C130.094 343.13 131.122 343.268 132.218 343.414C144.086 344.999 150.066 345.734 152.354 342.923C155.52 339.032 152.515 331.531 151.687 329.464C149.887 324.97 147.117 322.236 145.397 320.573C143.163 318.413 136.796 312.257 126.772 311.436C124.593 311.257 122.635 311.394 120.641 311.811C119.946 311.176 119.213 310.553 118.405 309.962C116.867 308.834 115.347 308 113.712 307.347C116.22 304.599 118.736 301.859 121.264 299.13C121.664 299.312 122.044 299.488 122.393 299.65C130.673 303.496 132.492 307.261 140.455 309.244C144.068 310.143 148.158 311.162 149.17 309.631C150.969 306.911 143.334 295.721 131.536 288.15C132.331 287.308 133.129 286.468 133.926 285.628C135.005 286.08 135.955 286.522 136.765 286.898C145.046 290.743 146.865 294.509 154.828 296.492C158.44 297.391 162.531 298.409 163.543 296.878C165.148 294.452 159.243 285.279 149.571 277.952C152.228 277.108 155.75 276.173 160.312 276.293C167.231 276.475 172.636 278.985 175.845 280.476C184.125 284.321 185.944 288.087 193.907 290.069C197.52 290.969 201.61 291.987 202.622 290.456C205.296 286.413 187.134 263.634 165.408 261.886C163.722 261.75 162.205 261.761 160.835 261.863C160.646 261.549 160.44 261.227 160.224 260.899C167.575 261.136 181.931 259.034 194.15 267.613C197.673 270.086 204.517 275.905 215.972 280.686C219.633 282.214 221.474 282.965 221.981 282.337C223.796 280.091 208.705 261.608 187.473 252.502C179.055 248.892 173.854 248.55 170.154 249.097C170.725 248.447 171.28 247.776 171.815 247.102C180.083 238.994 188.454 230.97 196.901 223.055C196.492 224.319 196.506 224.992 196.952 225.483ZM90.8561 326.4C81.5181 323.377 70.2107 325.001 67.2622 328.441C66.8465 325.392 66.4852 322.34 66.1875 319.281C70.4417 321.657 74.8808 322.293 83.3015 323.417C86.888 323.896 89.9284 324.295 92.5001 324.544C92.8455 325.481 93.2139 326.323 93.6414 327.129C93.6909 327.223 93.7441 327.312 93.7946 327.404L93.7201 327.489C92.7611 327.073 91.8004 326.706 90.8561 326.4ZM66.0461 285.446C66.3124 284.563 66.3179 283.622 66.1146 282.652C66.4051 279.138 66.7678 275.634 67.197 272.142C67.186 272.676 67.3555 273.211 67.5866 273.791C70.1826 280.311 77.197 286.569 86.7586 289.815C88.5422 290.421 90.0722 290.803 91.3902 291.036C90.8103 292.046 90.3661 293.031 90.0716 293.942C86.812 291.323 82.616 289.419 77.8552 291.439C76.5597 291.989 75.7906 294 75.1227 296.405C70.7246 296.481 67.0494 297.399 65.2991 298.951C65.3085 298.303 65.3052 297.657 65.3225 297.009C65.4211 293.312 65.6033 289.628 65.8601 285.955C65.9302 285.79 65.9933 285.621 66.0461 285.446ZM65.3115 304.459C65.501 304.847 65.7086 305.233 65.9242 305.618C65.7286 305.474 65.5283 305.319 65.3227 305.151C65.3172 304.921 65.3158 304.69 65.3115 304.459ZM72.8207 351.769C72.3087 351.702 71.7919 351.653 71.2703 351.623C70.0664 345.647 68.9547 339.674 68.0243 333.69C70.4711 337.573 74.4647 341.128 79.5517 343.824C77.2944 346.466 75.0558 349.116 72.8207 351.769ZM112.233 306.818C109.049 305.795 105.312 305.306 100.14 304.705C98.8297 302.884 97.4788 301.542 96.4801 300.576C95.9391 300.053 95.1087 299.016 94.0328 297.802C96.8206 296.908 100.981 295.313 106.86 295.468C112.203 295.608 116.638 297.136 119.86 298.512C117.308 301.27 114.768 304.04 112.233 306.818ZM130.281 287.367C127.152 285.476 123.758 283.857 120.186 282.719C120.533 282.716 120.873 282.706 121.233 282.716C125.663 282.832 129.469 283.903 132.478 285.05C131.746 285.822 131.012 286.593 130.281 287.367Z" fill="#94A3B8"/>
</g>
<defs>
<clipPath id="clip0_1_268">
<rect width="714" height="569" fill="white"/>
</clipPath>
</defs>
</svg>
